<?xml version="1.0" standalone="no"?>
<!DOCTYPE svg PUBLIC "-//W3C//DTD SVG 20010904//EN"
 "http://www.w3.org/TR/2001/REC-SVG-20010904/DTD/svg10.dtd">
<svg version="1.0" xmlns="http://www.w3.org/2000/svg"
 width="700.000000pt" height="700.000000pt" viewBox="0 0 700.000000 700.000000"
 preserveAspectRatio="xMidYMid meet">
<metadata>
Created by potrace 1.11, written by Peter Selinger 2001-2013
</metadata>
<g transform="translate(0.000000,700.000000) scale(0.100000,-0.100000)"
fill="#000000" stroke="none">
<path d="M3400 6433 c-947 -32 -1814 -518 -2346 -1313 -322 -483 -485 -1028
-485 -1620 0 -393 68 -754 207 -1094 383 -934 1195 -1601 2182 -1791 318 -61
766 -61 1084 0 784 151 1459 600 1904 1265 322 483 485 1028 485 1620 0 490
-98 900 -322 1342 -412 811 -1216 1400 -2119 1552 -163 27 -422 45 -590 39z"/>
</g>
</svg>
